<?xml version="1.0" encoding="utf-8"?>
<!-- Generator: Adobe Illustrator 23.0.4, SVG Export Plug-In . SVG Version: 6.00 Build 0)  -->
<svg version="1.1" id="Capa_1" xmlns="http://www.w3.org/2000/svg" xmlns:xlink="http://www.w3.org/1999/xlink" x="0px" y="0px"
	 viewBox="0 0 100 30" style="enable-background:new 0 0 100 30;" xml:space="preserve">
<style type="text/css">
	.st0{fill:#B92C32;}
</style>
<g id="XMLID_173_">
	<path id="XMLID_174_" class="st0" d="M97.5,3.13l0,23.73h-5.94l0-14.69l-9.62,10.97l-9.62-10.97l0,14.69h-5.88l0-23.73h0.3l0,0
		c0.01,0,0.02,0,0.03,0c2.68,0,4.99,0.82,6.05,2v0l9.12,10.14l9.2-10.17c1.07-1.16,3.36-1.97,6.01-1.97c0,0,0.02,0,0.03,0l0,0H97.5z
		 M63.27,3.13L63.27,3.13c0,0-0.02,0-0.04,0c-2.97,0-5.53,0.81-6.72,1.98l-9.31,14.1L37.88,5.1c-1.19-1.16-3.75-1.97-6.72-1.97
		c-0.01,0-0.02,0-0.02,0l-0.01,0h-1.88l15.86,23.73l4.17,0L65.2,3.13H63.27z M22.14,5.08l0,12.56c0,1.18,0,2.8-1.69,3.85
		c-1.24,0.74-3.21,0.92-5.46,0.92c-1.8,0-3.77-0.09-5.01-0.88c-1.46-0.92-1.52-2.23-1.52-3.46l0-13.01C7.41,3.93,5.14,3.14,2.5,3.13
		l0,15.43c0,1.92,0.4,4.24,2.59,5.99c2.65,2.1,6.92,2.32,10.02,2.32c3.43,0,7.43-0.35,9.96-2.05c2.65-1.75,2.99-3.98,2.99-6.26
		l0-15.43C25.43,3.15,23.18,3.95,22.14,5.08"/>
</g>
</svg>
